PathFileType	4	(X/Y/Z)	C:/Users/opensim2020/Desktop/walking_exp_matlab/subject03_walking08_straight_03.trc																																																																																																																																																							
DataRate	CameraRate	NumFrames	NumMarkers	Units	OrigDataRate	OrigDataStartFrame	OrigNumFrames																																																																																																																																																			
100	100	7	51	mm	100	2693	299																																																																																																																																																			
Frame#	Time	LFHD			RFHD			LBHD			RBHD			C7			T10			CLAV			STRN			RBAK			LSHO			LUPA			LELB			LFRM			LWRA			LWRB			LFIN			RSHO			RUPA			RELB			RFRM			RWRA			RWRB			RFIN			LASI			RASI			LPSI			RPSI			LTHI			LKNE			LTIB			LANK			LHEE			LTOE			RTHI			RKNE			RTIB			RANK			RHEE			RTOE			*39			*40			*41			*42			*43			*44			*45			*46			*47			*48			*49			*50		
		X1	Y1	Z1	X2	Y2	Z2	X3	Y3	Z3	X4	Y4	Z4	X5	Y5	Z5	X6	Y6	Z6	X7	Y7	Z7	X8	Y8	Z8	X9	Y9	Z9	X10	Y10	Z10	X11	Y11	Z11	X12	Y12	Z12	X13	Y13	Z13	X14	Y14	Z14	X15	Y15	Z15	X16	Y16	Z16	X17	Y17	Z17	X18	Y18	Z18	X19	Y19	Z19	X20	Y20	Z20	X21	Y21	Z21	X22	Y22	Z22	X23	Y23	Z23	X24	Y24	Z24	X25	Y25	Z25	X26	Y26	Z26	X27	Y27	Z27	X28	Y28	Z28	X29	Y29	Z29	X30	Y30	Z30	X31	Y31	Z31	X32	Y32	Z32	X33	Y33	Z33	X34	Y34	Z34	X35	Y35	Z35	X36	Y36	Z36	X37	Y37	Z37	X38	Y38	Z38	X39	Y39	Z39	X40	Y40	Z40	X41	Y41	Z41	X42	Y42	Z42	X43	Y43	Z43	X44	Y44	Z44	X45	Y45	Z45	X46	Y46	Z46	X47	Y47	Z47	X48	Y48	Z48	X49	Y49	Z49	X50	Y50	Z50	X51	Y51	Z51
																																																																																																																																																										
262	2.61	967.41663	1618.27234	-1035.00513	945.62842	1613.9436	-903.85974	843.11249	1568.65198	-1053.74573	826.8924	1564.44202	-924.29205	807.01349	1408.8739	-995.30444	775.22681	1094.78943	-994.11493	931.76056	1335.01709	-998.48206	974.88275	1170.05481	-1001.59473	760.01373	1235.76501	-892.3139	878.19116	1371.35559	-1153.67639	847.77478	1171.86157	-1220.08191	844.13367	1047.92957	-1227.39319	861.13971	918.51782	-1220.53564	870.58337	801.69562	-1183.85596	849.41876	805.7691	-1236.15466	859.35913	722.61407	-1223.14673	893.0473	1359.29541	-837.65594	941.25586	1144.8656	-763.65735	988.38171	1043.50916	-749.07861	1053.00403	922.98944	-749.67279	1117.71497	848.55182	-786.60712	1089.63049	829.40894	-745.02216	1140.31348	776.3009	-754.1795	944.27753	933.54999	-1109.82947	942.61493	932.62317	-872.86084	780.66132	948.42761	-1064.76758	781.57983	962.46851	-914.6864	955.48706	633.30518	-1162.27991	1022.77563	469.46649	-1119.47571	1030.5083	279.07571	-1129.04407	1080.29297	72.56999	-1100.25061	1048.05872	30.65504	-1063.09583	1232.18103	61.97877	-1073.08728	859.02991	639.85748	-841.85132	844.3338	461.22446	-880.10687	764.6012	284.56628	-882.7771	698.71545	78.8415	-937.54797	651.0047	52.95515	-988.95911	836.18146	31.63153	-952.86328	874.65326	1671.67236	-994.99438	NaN	NaN	NaN	NaN	NaN	NaN	NaN	NaN	NaN	NaN	NaN	NaN	NaN	NaN	NaN	NaN	NaN	NaN	NaN	NaN	NaN	NaN	NaN	NaN	NaN	NaN	NaN	NaN	NaN	NaN	NaN	NaN	NaN
263	2.62	973.96381	1617.84863	-1035.69739	952.01263	1613.44067	-904.49988	849.82788	1567.64319	-1054.50232	833.4845	1563.46057	-925.02954	813.96838	1408.1488	-995.99713	782.10431	1094.17017	-995.0658	938.80328	1334.27454	-999.00317	981.94482	1169.29431	-1001.90234	766.65625	1235.19629	-893.10547	885.47821	1370.43286	-1154.27124	856.05615	1170.65222	-1220.03076	852.40991	1046.58008	-1226.81616	869.47113	917.02771	-1219.53088	878.95288	800.75391	-1182.75366	857.86304	804.41425	-1234.91821	867.63843	721.3418	-1221.60327	899.88721	1358.46277	-838.2605	947.93591	1143.87952	-764.53406	995.24445	1042.57739	-749.98041	1059.9386	922.14612	-750.74365	1124.77942	847.77313	-787.55267	1096.64185	828.55023	-746.11438	1147.33362	775.50195	-755.21942	951.86243	932.62708	-1110.31091	948.95819	931.95251	-873.19067	787.91766	947.68274	-1066.04504	788.11548	961.71112	-915.90424	962.63171	632.43011	-1162.37061	1028.48193	468.17258	-1118.58557	1039.56824	278.72958	-1128.8656	1093.7948	73.07575	-1100.78076	1062.23804	30.63258	-1063.68164	1246.10083	64.96281	-1072.47498	864.30048	639.51868	-842.17749	848.78278	460.91226	-880.0976	767.36304	284.90436	-882.73828	699.24518	79.76694	-937.32623	651.22321	54.34344	-988.61932	836.32562	31.57339	-952.76935	880.8457	1670.70605	-995.43707	NaN	NaN	NaN	NaN	NaN	NaN	NaN	NaN	NaN	NaN	NaN	NaN	NaN	NaN	NaN	NaN	NaN	NaN	NaN	NaN	NaN	NaN	NaN	NaN	NaN	NaN	NaN	NaN	NaN	NaN	NaN	NaN	NaN
264	2.63	980.55328	1617.43176	-1036.35486	958.49438	1613.02966	-905.1825	856.5907	1566.77722	-1055.2854	840.15472	1562.6145	-925.79865	821.05481	1407.4718	-996.73401	789.13507	1093.53381	-996.1015	945.87811	1333.58643	-999.48474	989.07904	1168.62537	-1002.23901	773.41644	1234.61926	-894.0506	892.89075	1369.60718	-1154.88623	864.39203	1169.51758	-1220.10095	860.99115	1045.45776	-1226.34668	878.16443	916.0332	-1218.60242	887.54358	799.90924	-1181.65588	866.61328	803.21411	-1233.65833	876.25671	720.17615	-1219.96423	906.69324	1357.7002	-838.88263	954.5271	1142.90845	-765.3313	1001.92914	1041.65503	-750.95135	1066.6217	921.17383	-751.62268	1131.58081	846.95575	-788.4209	1103.38245	827.62653	-747.12561	1154.13416	774.62018	-756.35291	959.47137	931.82953	-1110.76526	955.48303	931.3609	-873.72333	795.32062	947.0849	-1067.40076	794.81598	961.05243	-917.24243	969.56	631.46167	-1162.1405	1034.26257	466.96085	-1117.89978	1047.97815	278.41379	-1128.81274	1105.65063	73.5967	-1101.08142	1074.82349	30.44214	-1064.43433	1258.29407	67.16734	-1071.85901	869.711	639.21796	-842.48138	853.37665	460.57346	-880.16467	770.13605	285.3093	-882.68372	699.80664	80.78249	-937.01971	651.60858	55.74248	-988.39203	836.48029	31.50812	-952.63428	887.18835	1669.73682	-996.25232	NaN	NaN	NaN	NaN	NaN	NaN	NaN	NaN	NaN	NaN	NaN	NaN	NaN	NaN	NaN	NaN	NaN	NaN	NaN	NaN	NaN	NaN	NaN	NaN	NaN	NaN	NaN	NaN	NaN	NaN	NaN	NaN	NaN
265	2.64	987.11011	1617.0022	-1036.98279	964.95825	1612.68982	-905.88904	863.40851	1566.01416	-1056.05774	846.78345	1561.90063	-926.57855	828.16748	1406.85022	-997.63141	796.33221	1092.95874	-997.25592	953.04163	1333.00647	-999.97278	996.32062	1168.02869	-1002.62219	780.28534	1233.9458	-895.04572	900.44141	1368.88562	-1155.50708	872.90009	1168.46753	-1220.45691	869.7193	1044.36511	-1226.0498	886.96649	915.03973	-1217.66919	895.56287	798.37823	-1179.52271	875.74774	802.20282	-1232.57898	885.1579	719.0592	-1218.21826	913.4043	1356.99646	-839.45117	961.08844	1141.97192	-766.27368	1008.48169	1040.75391	-751.91473	1073.11377	920.19232	-752.56299	1138.13623	846.1228	-789.24298	1109.73096	826.6366	-748.15588	1160.48438	773.56354	-757.30756	967.1853	930.99182	-1111.25366	962.15948	930.72888	-873.96399	802.87317	946.62543	-1068.76257	801.66992	960.47101	-918.67468	976.58234	630.6391	-1161.86316	1040.18335	465.91034	-1117.45618	1055.74695	278.09045	-1128.79297	1115.83093	73.83584	-1101.30249	1084.73877	30.57025	-1064.88123	1268.64551	68.44947	-1071.1604	875.19086	638.89874	-842.90942	858.01147	460.32971	-880.25879	772.94135	285.76837	-882.66589	700.26733	81.92637	-936.71271	651.85797	57.30905	-987.99371	836.66565	31.49638	-952.48511	893.63092	1669.57556	-997.41431	NaN	NaN	NaN	NaN	NaN	NaN	NaN	NaN	NaN	NaN	NaN	NaN	NaN	NaN	NaN	NaN	NaN	NaN	NaN	NaN	NaN	NaN	NaN	NaN	NaN	NaN	NaN	NaN	NaN	NaN	NaN	NaN	NaN
266	2.65	993.83002	1616.80383	-1037.74817	971.48511	1612.43408	-906.61328	870.24988	1565.34058	-1056.86462	853.44843	1561.24463	-927.42883	835.30634	1406.22168	-998.36841	803.6366	1092.45923	-998.49103	960.30377	1332.52441	-1000.47278	1003.76923	1167.55249	-1003.09143	787.1994	1233.3092	-896.15167	908.06757	1368.24438	-1156.15527	881.31995	1167.68518	-1220.47766	878.40118	1043.47009	-1225.76501	895.90283	914.164	-1216.79004	904.49542	797.66724	-1178.14966	885.09808	801.23853	-1231.28528	894.3855	718.22186	-1216.5011	920.16736	1356.37048	-840.07379	967.50079	1141.10217	-767.34607	1014.87329	1039.85413	-752.85742	1079.35059	919.23755	-753.57715	1144.45447	845.21075	-790.04388	1115.90979	825.67938	-749.17291	1166.49353	772.38892	-758.25287	974.98724	930.29266	-1111.77966	968.96185	930.15704	-874.44495	810.56769	946.29681	-1070.23083	808.69977	960.00372	-920.11804	983.48273	629.89392	-1161.68909	1046.33997	465.06198	-1117.3363	1062.84558	277.60175	-1128.84045	1123.88831	73.44984	-1101.27332	1093.24695	29.98108	-1065.08362	1277.02844	68.56321	-1070.23108	880.67383	638.65454	-843.33551	862.65125	460.0506	-880.37787	775.71344	286.30112	-882.68005	700.95593	83.07352	-936.37329	652.28516	58.98033	-987.69421	836.77417	31.39005	-952.4516	900.05823	1669.05286	-998.14056	NaN	NaN	NaN	NaN	NaN	NaN	NaN	NaN	NaN	NaN	NaN	NaN	NaN	NaN	NaN	NaN	NaN	NaN	NaN	NaN	NaN	NaN	NaN	NaN	NaN	NaN	NaN	NaN	NaN	NaN	NaN	NaN	NaN
267	2.66	1000.50677	1616.57703	-1038.4469	977.96014	1612.27576	-907.31927	877.11041	1564.703	-1057.70129	860.15857	1560.70911	-928.3269	842.56732	1405.70044	-999.31573	811.11725	1091.98181	-999.67535	967.63226	1332.07532	-1001.01013	1011.19434	1167.14478	-1003.58478	794.24359	1232.70081	-897.37805	915.79651	1367.71948	-1156.82043	889.80737	1166.96545	-1220.77454	887.23077	1042.67493	-1225.58228	905.09619	913.45563	-1215.94128	915.40778	798.57239	-1178.70654	894.65973	800.34808	-1229.91956	903.93579	717.46704	-1214.78113	927.01807	1355.80713	-840.69849	973.96716	1140.271	-768.28436	1021.12927	1038.9408	-753.85791	1085.33875	918.17377	-754.43817	1150.4541	844.12024	-790.76715	1121.60999	824.45459	-750.05414	1172.17444	771.08661	-759.11835	983.03394	929.72125	-1112.33325	975.90179	929.59503	-875.0119	818.39709	946.1665	-1071.66357	815.85938	959.67639	-921.48749	990.28516	629.12573	-1161.44995	1052.80994	464.3468	-1117.38977	1069.24475	276.87766	-1128.81543	1130.09412	72.64005	-1100.99841	1098.81995	29.50197	-1064.92261	1283.09131	67.20142	-1069.1228	886.1908	638.50806	-843.74451	867.35901	459.91092	-880.5163	778.58148	286.96399	-882.7135	701.66711	84.36271	-936.1145	652.77014	60.80349	-987.42084	836.96796	31.27762	-952.40643	906.47235	1668.44312	-998.96875	NaN	NaN	NaN	NaN	NaN	NaN	NaN	NaN	NaN	NaN	NaN	NaN	NaN	NaN	NaN	NaN	NaN	NaN	NaN	NaN	NaN	NaN	NaN	NaN	NaN	NaN	NaN	NaN	NaN	NaN	NaN	NaN	NaN
268	2.67	1007.23907	1616.41553	-1039.14758	984.52301	1612.13574	-908.04498	884.02734	1564.17285	-1058.55835	866.87781	1560.21643	-929.17847	849.93176	1405.20386	-1000.22754	818.7428	1091.50061	-1000.83643	975.01941	1331.72729	-1001.56824	1018.85382	1166.83984	-1004.1192	801.39948	1232.05249	-898.599	923.58783	1367.30054	-1157.50195	898.30267	1166.37976	-1221.12646	896.14624	1042.01404	-1225.52136	914.36365	912.89563	-1215.21619	925.21387	798.03003	-1178.37134	904.35052	799.67499	-1228.93542	913.71185	716.73047	-1213.10315	933.90979	1355.35352	-841.34192	980.47003	1139.50195	-769.11481	1027.21545	1038.04053	-754.7973	1091.09607	917.10126	-755.33508	1156.25757	842.95251	-791.54852	1127.09399	823.24591	-750.98462	1177.55249	769.76483	-760.11273	991.1629	929.27319	-1112.96521	983.05676	929.08063	-875.67548	826.28424	946.09674	-1073.03748	823.27557	959.36121	-922.82104	997.66028	628.87854	-1161.91797	1059.59888	463.63025	-1117.77441	1074.88745	275.98212	-1128.77466	1134.18213	71.24158	-1100.61633	1102.81396	28.17739	-1064.67712	1287.05884	64.96009	-1067.77466	891.84094	638.36884	-844.24982	872.20221	459.74289	-880.64185	781.51453	287.69254	-882.76019	702.55518	85.84113	-935.94373	653.41986	62.85198	-987.22632	837.18427	31.26611	-952.19672	912.98755	1667.90479	-999.60638	NaN	NaN	NaN	NaN	NaN	NaN	NaN	NaN	NaN	NaN	NaN	NaN	NaN	NaN	NaN	NaN	NaN	NaN	NaN	NaN	NaN	NaN	NaN	NaN	NaN	NaN	NaN	NaN	NaN	NaN	NaN	NaN	NaN
